<svg width="123" height="20" viewBox="0 0 123 20" fill="none" xmlns="http://www.w3.org/2000/svg">
<path d="M19.2276 1H16.1917V0H4.04792V1H1.01198C0.404792 1 0 1.4 0 2V4.4C0 6.7 1.72036 8.6 4.04792 8.9V9C4.04792 11.9 6.07187 14.3 8.80422 14.9L8.09583 17H5.76828C5.36349 17 4.9587 17.3 4.8575 17.7L4.04792 20H16.1917L15.3821 17.7C15.2809 17.3 14.8761 17 14.4713 17H12.1437L11.4354 14.9C14.1677 14.3 16.1917 11.9 16.1917 9V8.9C18.5192 8.6 20.2396 6.7 20.2396 4.4V2C20.2396 1.4 19.8348 1 19.2276 1ZM4.04792 6.9C2.93474 6.6 2.02396 5.6 2.02396 4.4V3H4.04792V6.9ZM12.1437 10L10.1198 8.9L8.09583 10L8.60182 8L7.08385 6H9.20901L10.1198 4L11.0306 6H13.1557L11.6378 8L12.1437 10ZM18.2156 4.4C18.2156 5.6 17.3048 6.7 16.1917 6.9V3H18.2156V4.4Z" fill="#F8B500"/>
<path d="M30.1256 15.3401H27.1339C26.6785 15.3401 26.3734 15.3102 26.2186 15.2504C26.0637 15.1906 25.9863 15.0966 25.9863 14.9684V6.7287C25.9863 6.31863 27.3023 6.1136 29.9344 6.1136C31.4462 6.1136 32.489 6.25029 33.0628 6.52366C33.6456 6.80558 34.019 7.16439 34.183 7.60008C34.274 7.85637 34.3196 8.15538 34.3196 8.4971C34.3196 9.16346 34.1966 9.66322 33.9507 9.9964C33.7139 10.3296 33.4544 10.5175 33.172 10.5602C33.6001 10.6457 33.9553 10.8422 34.2376 11.1497C34.5199 11.4573 34.6611 11.9784 34.6611 12.7131C34.6611 13.5674 34.3833 14.1996 33.8278 14.6096C33.3451 14.9684 32.6074 15.1948 31.6147 15.2888C31.1957 15.323 30.6994 15.3401 30.1256 15.3401ZM30.1393 9.75292C30.6038 9.75292 30.836 9.46246 30.836 8.88154C30.836 8.59107 30.7723 8.3775 30.6448 8.24081C30.5264 8.09558 30.3897 8.02296 30.2349 8.02296H29.7978V9.75292H30.1393ZM29.7978 13.4307H30.1393C30.6038 13.4307 30.836 13.1402 30.836 12.5593C30.836 12.2688 30.7723 12.0553 30.6448 11.9186C30.5264 11.7733 30.3897 11.7007 30.2349 11.7007H29.7978V13.4307Z" fill="white"/>
<path d="M39.1735 8.71495V15.0325C39.1735 15.1265 38.9094 15.2034 38.3812 15.2632C37.8621 15.3144 37.3247 15.3401 36.7692 15.3401C36.2227 15.3401 35.8675 15.3187 35.7036 15.276C35.5488 15.2247 35.4714 15.1436 35.4714 15.0325V8.94561C35.4714 8.75766 35.7264 8.57399 36.2364 8.39458C36.7555 8.20664 37.3202 8.11267 37.9304 8.11267C38.7591 8.11267 39.1735 8.31343 39.1735 8.71495ZM37.3156 5.34473C37.9167 5.34473 38.3857 5.43016 38.7227 5.60102C39.0688 5.76333 39.2418 6.06234 39.2418 6.49803C39.2418 7.26691 38.6043 7.65134 37.3293 7.65134C36.0542 7.65134 35.4167 7.26691 35.4167 6.49803C35.4167 5.72916 36.0497 5.34473 37.3156 5.34473Z" fill="white"/>
<path d="M43.8813 5.93419V15.0325C43.8813 15.1265 43.6217 15.2034 43.1026 15.2632C42.5835 15.3144 42.0461 15.3401 41.4906 15.3401C40.9441 15.3401 40.5889 15.3187 40.425 15.276C40.2702 15.2247 40.1928 15.1436 40.1928 15.0325V6.16486C40.1928 5.97691 40.4478 5.79324 40.9578 5.61383C41.4769 5.43443 42.0325 5.34473 42.6244 5.34473C43.4623 5.34473 43.8813 5.54122 43.8813 5.93419Z" fill="white"/>
<path d="M48.5239 5.93419V15.0325C48.5239 15.1265 48.2643 15.2034 47.7452 15.2632C47.2261 15.3144 46.6887 15.3401 46.1332 15.3401C45.5867 15.3401 45.2316 15.3187 45.0676 15.276C44.9128 15.2247 44.8354 15.1436 44.8354 15.0325V6.16486C44.8354 5.97691 45.0904 5.79324 45.6004 5.61383C46.1195 5.43443 46.6751 5.34473 47.2671 5.34473C48.1049 5.34473 48.5239 5.54122 48.5239 5.93419Z" fill="white"/>
<path d="M54.1118 15.2091C53.6757 15.2091 53.3896 15.1786 53.2533 15.1175C53.117 15.0564 53.0216 14.9517 52.9671 14.8034L49.9556 6.81932C49.9556 6.65353 50.2781 6.46156 50.9231 6.24342C51.5772 6.02527 52.2358 5.9162 52.899 5.9162C53.753 5.9162 54.2072 6.17361 54.2617 6.68843L54.725 10.8375H54.9158L55.2973 6.68843C55.3428 6.17361 55.956 5.9162 57.137 5.9162C57.5912 5.9162 57.8956 5.97728 58.05 6.09944C58.2044 6.21288 58.2907 6.36558 58.3089 6.55754L58.7586 10.8375H58.9494L59.3037 6.68843C59.3309 6.43538 59.6398 6.24342 60.2303 6.11253C60.8299 5.98165 61.4204 5.9162 62.0018 5.9162C62.5923 5.9162 62.992 5.9991 63.201 6.16489C63.419 6.33068 63.528 6.50519 63.528 6.68843L60.6119 14.8034C60.5119 15.0739 59.8397 15.2091 58.5951 15.2091C58.2226 15.2091 57.9728 15.1786 57.8456 15.1175C57.7184 15.0564 57.6321 14.9517 57.5867 14.8034L56.8781 12.5259H56.7145L55.9923 14.8034C55.9106 15.0739 55.2837 15.2091 54.1118 15.2091Z" fill="#F8B500"/>
<path d="M67.8836 8.4423V14.895C67.8836 14.991 67.6201 15.0695 67.0932 15.1306C66.5754 15.1829 66.0394 15.2091 65.4852 15.2091C64.9401 15.2091 64.5858 15.1873 64.4223 15.1437C64.2679 15.0913 64.1906 15.0084 64.1906 14.895V8.6779C64.1906 8.48593 64.445 8.29833 64.9538 8.11509C65.4716 7.92312 66.0348 7.82714 66.6435 7.82714C67.4702 7.82714 67.8836 8.03219 67.8836 8.4423ZM66.0303 5C66.6299 5 67.0977 5.08726 67.4339 5.26177C67.7791 5.42756 67.9517 5.73296 67.9517 6.17797C67.9517 6.96329 67.3158 7.35595 66.0439 7.35595C64.7721 7.35595 64.1361 6.96329 64.1361 6.17797C64.1361 5.39266 64.7675 5 66.0303 5Z" fill="#F8B500"/>
<path d="M77.1173 10.8637V14.895C77.1173 14.991 76.8584 15.0695 76.3406 15.1306C75.8228 15.1829 75.2868 15.2091 74.7326 15.2091C74.1875 15.2091 73.8332 15.1873 73.6697 15.1437C73.5153 15.0913 73.438 15.0084 73.438 14.895V10.7328C73.438 10.3402 73.4199 10.0827 73.3835 9.96058C73.3563 9.83842 73.329 9.72935 73.3018 9.63337C73.2382 9.46758 73.1246 9.38468 72.9611 9.38468C72.7067 9.38468 72.5795 9.50248 72.5795 9.73808V14.895C72.5795 14.991 72.3206 15.0695 71.8028 15.1306C71.2941 15.1829 70.7626 15.2091 70.2085 15.2091C69.6634 15.2091 69.3091 15.1873 69.1455 15.1437C68.982 15.0913 68.9003 15.0084 68.9003 14.895V8.4423C68.9003 8.25906 69.1592 8.07582 69.677 7.89258C70.2039 7.70934 70.7581 7.61772 71.3395 7.61772C71.9209 7.61772 72.248 7.77915 72.3206 8.102L72.4433 8.6779H72.5387C72.8021 8.17181 73.2564 7.81841 73.9014 7.61772C74.1648 7.53919 74.4555 7.49992 74.7735 7.49992C75.691 7.49992 76.3088 7.76606 76.6268 8.29833C76.9538 8.82187 77.1173 9.677 77.1173 10.8637Z" fill="#F8B500"/>
<path d="M86.2863 10.8637V14.895C86.2863 14.991 86.0274 15.0695 85.5095 15.1306C84.9917 15.1829 84.4557 15.2091 83.9015 15.2091C83.3565 15.2091 83.0022 15.1873 82.8386 15.1437C82.6842 15.0913 82.607 15.0084 82.607 14.895V10.7328C82.607 10.3402 82.5888 10.0827 82.5525 9.96058C82.5252 9.83842 82.498 9.72935 82.4707 9.63337C82.4071 9.46758 82.2936 9.38468 82.13 9.38468C81.8757 9.38468 81.7485 9.50248 81.7485 9.73808V14.895C81.7485 14.991 81.4896 15.0695 80.9717 15.1306C80.463 15.1829 79.9316 15.2091 79.3774 15.2091C78.8323 15.2091 78.478 15.1873 78.3145 15.1437C78.151 15.0913 78.0692 15.0084 78.0692 14.895V8.4423C78.0692 8.25906 78.3281 8.07582 78.8459 7.89258C79.3728 7.70934 79.927 7.61772 80.5084 7.61772C81.0898 7.61772 81.4169 7.77915 81.4896 8.102L81.6122 8.6779H81.7076C81.9711 8.17181 82.4253 7.81841 83.0703 7.61772C83.3338 7.53919 83.6245 7.49992 83.9424 7.49992C84.86 7.49992 85.4777 7.76606 85.7957 8.29833C86.1227 8.82187 86.2863 9.677 86.2863 10.8637Z" fill="#F8B500"/>
<path d="M90.822 12.2511C90.822 12.8183 91.1037 13.1018 91.6669 13.1018C91.9939 13.1018 92.4209 12.9971 92.9478 12.7877C93.4747 12.5696 93.7518 12.4605 93.7791 12.4605C93.9517 12.4605 94.1788 12.7092 94.4604 13.2066C94.7421 13.7039 94.8829 14.0704 94.8829 14.306C94.8829 14.6463 94.5195 14.9037 93.7927 15.0782C93.0659 15.2527 92.3528 15.34 91.6533 15.34C90.9628 15.34 90.3814 15.2876 89.909 15.1829C89.4457 15.0782 89.0641 14.9473 88.7644 14.7903C88.4736 14.6245 88.2147 14.4238 87.9876 14.1882C87.7696 13.9526 87.6061 13.7301 87.497 13.5207C87.388 13.3025 87.3017 13.0626 87.2381 12.8008C87.1473 12.4169 87.1019 12.0199 87.1019 11.6097C87.1019 10.0217 87.5334 8.92658 88.3964 8.32451C88.8234 8.01911 89.3003 7.80532 89.8273 7.68316C90.3542 7.561 90.9765 7.49992 91.6942 7.49992C93.9926 7.49992 95.1418 8.26779 95.1418 9.80352C95.1418 11.4352 93.8518 12.2511 91.2717 12.2511H90.822ZM90.7948 10.3402V11.204C91.0582 11.204 91.2717 11.1037 91.4352 10.903C91.6078 10.7023 91.6942 10.4579 91.6942 10.17C91.6942 9.64646 91.5533 9.38468 91.2717 9.38468C90.9538 9.38468 90.7948 9.70317 90.7948 10.3402Z" fill="#F8B500"/>
<path d="M99.6339 11.0731V14.895C99.6339 14.991 99.375 15.0695 98.8572 15.1306C98.3484 15.1829 97.817 15.2091 97.2628 15.2091C96.7177 15.2091 96.3634 15.1873 96.1999 15.1437C96.0364 15.0913 95.9546 15.0084 95.9546 14.895V8.4423C95.9546 8.27652 96.2044 8.09764 96.7041 7.90567C97.2128 7.7137 97.7625 7.61772 98.353 7.61772C98.9525 7.61772 99.2887 7.77478 99.3614 8.08891L99.4976 8.69099H99.593C99.7202 8.35941 100.025 8.08019 100.506 7.85332C100.988 7.61772 101.469 7.49992 101.95 7.49992C102.432 7.49992 102.768 7.57409 102.959 7.72243C103.159 7.87077 103.259 8.06273 103.259 8.29833C103.259 8.5252 103.241 8.81751 103.204 9.17527C103.168 9.53302 103.077 9.92132 102.932 10.3402C102.795 10.759 102.614 10.9684 102.387 10.9684C102.296 10.9684 102.01 10.903 101.528 10.7721C101.047 10.6412 100.647 10.5757 100.329 10.5757C100.02 10.5757 99.8247 10.6194 99.7429 10.7066C99.6702 10.7939 99.6339 10.9161 99.6339 11.0731Z" fill="#F8B500"/>
<path d="M105.807 14.0874C105.807 14.6926 105.416 14.9952 104.636 14.9952C103.867 14.9952 103.483 14.6926 103.483 14.0874C103.483 13.4762 103.867 13.1707 104.636 13.1707C105.416 13.1707 105.807 13.4762 105.807 14.0874Z" fill="#F8B500"/>
<path d="M108.468 11.54C108.108 11.54 107.928 11.8456 107.928 12.4567C107.928 13.2618 108.254 13.6643 108.907 13.6643C109.139 13.6643 109.389 13.6173 109.657 13.5232C109.871 13.5879 109.978 13.7818 109.978 14.105C109.978 14.6985 109.468 14.9952 108.449 14.9952C107.705 14.9952 107.129 14.7837 106.72 14.3606C106.305 13.9434 106.098 13.3528 106.098 12.5889C106.098 11.7251 106.327 11.067 106.784 10.6146C107.205 10.2032 107.788 9.99756 108.532 9.99756C109.233 9.99756 109.691 10.0798 109.904 10.2444C109.971 10.4735 109.993 10.7027 109.968 10.9319C109.932 11.3902 109.703 11.6194 109.282 11.6194C109.142 11.6194 108.989 11.6047 108.825 11.5753C108.66 11.5518 108.541 11.54 108.468 11.54Z" fill="#F8B500"/>
<path d="M112.625 9.99756C113.344 9.99756 113.909 10.2355 114.317 10.7115C114.689 11.1581 114.876 11.7428 114.876 12.4655C114.876 13.2001 114.683 13.7936 114.299 14.246C113.878 14.7455 113.277 14.9952 112.496 14.9952C111.716 14.9952 111.124 14.7514 110.721 14.2636C110.361 13.8288 110.181 13.2383 110.181 12.492C110.181 11.7046 110.386 11.0935 110.795 10.6586C111.215 10.2179 111.825 9.99756 112.625 9.99756ZM113 12.5008C113 11.7722 112.838 11.4078 112.515 11.4078C112.191 11.4078 112.03 11.7751 112.03 12.5096C112.03 12.9738 112.073 13.2911 112.158 13.4615C112.231 13.6085 112.356 13.6819 112.533 13.6819C112.844 13.6819 113 13.2882 113 12.5008Z" fill="#F8B500"/>
<path d="M122.277 14.387C122.277 14.7044 121.957 14.863 121.317 14.863C120.676 14.863 120.356 14.7044 120.356 14.387V12.016C120.356 11.8221 120.325 11.687 120.264 11.6106C120.203 11.54 120.084 11.5048 119.907 11.5048L119.77 11.5136L119.779 11.6546V14.4576C119.779 14.7749 119.459 14.9335 118.819 14.9335C118.178 14.9335 117.858 14.7749 117.858 14.4576V12.016C117.858 11.8221 117.827 11.687 117.766 11.6106C117.705 11.54 117.586 11.5048 117.409 11.5048C117.348 11.5048 117.29 11.5136 117.236 11.5312V14.4576C117.236 14.7749 116.915 14.9335 116.275 14.9335C115.634 14.9335 115.314 14.7749 115.314 14.4576V10.5705C115.314 10.2649 115.631 10.1121 116.266 10.1121C116.912 10.1121 117.236 10.2649 117.236 10.5705V10.7468C117.406 10.2473 117.782 9.99756 118.361 9.99756C119.038 9.99756 119.462 10.2326 119.633 10.7027C119.798 10.2326 120.188 9.99756 120.804 9.99756C121.786 9.99756 122.277 10.5999 122.277 11.8045V14.387Z" fill="#F8B500"/>
</svg>
